<svg width="40" height="30" viewBox="0 0 40 30" fill="none" xmlns="http://www.w3.org/2000/svg">
<g clip-path="url(#clip0_1855_198965)">
<path d="M2.04863 0H31.9125C33.0349 0 33.9563 0.918726 33.9563 2.0361V20.6085C33.9563 21.7266 33.0347 22.6447 31.9125 22.6447H2.04863C0.924883 22.6447 0.00488281 21.7281 0.00488281 20.6085V2.0361C0.00488281 0.918337 0.926914 0 2.04863 0Z" fill="#3B95D9"/>
<path fill-rule="evenodd" clip-rule="evenodd" d="M2.04848 0.597168H31.9125C32.7068 0.597168 33.3566 1.24759 33.3566 2.03593V20.6084C33.3566 21.3967 32.7038 22.0471 31.9125 22.0471H2.04848C1.25723 22.0471 0.604492 21.3997 0.604492 20.6084V2.03593C0.604492 1.24463 1.25426 0.597168 2.04848 0.597168Z" fill="#42A6F1"/>
<path fill-rule="evenodd" clip-rule="evenodd" d="M0 4.37402H33.9602V10.1972H0V4.37402Z" fill="#4D5471"/>
<path d="M8.09258 7.35547H37.9562C38.5185 7.35547 39.0295 7.58494 39.3993 7.95342L39.436 7.99351C39.785 8.36013 40 8.8537 40 9.39156V27.964C40 29.082 39.0784 30.0002 37.9562 30.0002H8.09258C6.96891 30.0002 6.04883 29.0835 6.04883 27.964V9.39156C6.04883 8.8337 6.27844 8.32541 6.64875 7.95552L6.65258 7.95179C7.02359 7.58377 7.53328 7.35547 8.09258 7.35547Z" fill="#D54C3D"/>
<path fill-rule="evenodd" clip-rule="evenodd" d="M8.0925 7.95264H37.9562C38.7505 7.95264 39.4002 8.60305 39.4002 9.3914V27.9638C39.4002 28.7521 38.7474 29.4026 37.9562 29.4026H8.0925C7.30125 29.4026 6.64844 28.7552 6.64844 27.9638V9.3914C6.64844 8.60002 7.2982 7.95264 8.0925 7.95264Z" fill="#ED5444"/>
<path d="M9.87543 22.0926C9.70282 22.0926 9.53728 22.0242 9.41523 21.9026C9.29318 21.781 9.22461 21.6161 9.22461 21.4441C9.22461 21.2721 9.29318 21.1072 9.41523 20.9856C9.53728 20.864 9.70282 20.7957 9.87543 20.7957H22.9825C23.1551 20.7957 23.3206 20.864 23.4427 20.9856C23.5647 21.1072 23.6333 21.2721 23.6333 21.4441C23.6333 21.6161 23.5647 21.781 23.4427 21.9026C23.3206 22.0242 23.1551 22.0926 22.9825 22.0926H9.87543ZM28.8022 20.0381C29.7736 20.0381 30.6354 20.5047 31.1743 21.2254C31.7134 20.5047 32.5753 20.0381 33.5468 20.0381C35.1796 20.0381 36.5034 21.357 36.5034 22.9838C36.5034 24.6108 35.1796 25.9297 33.5468 25.9297C32.5753 25.9297 31.7134 25.4629 31.1743 24.7422C30.6354 25.4629 29.7736 25.9297 28.8022 25.9297C27.1692 25.9297 25.8455 24.6108 25.8455 22.9838C25.8455 21.357 27.1692 20.0381 28.8022 20.0381ZM9.87543 25.1722C9.70406 25.1704 9.54034 25.1012 9.41982 24.9798C9.2993 24.8584 9.2317 24.6945 9.2317 24.5238C9.2317 24.353 9.2993 24.1892 9.41982 24.0678C9.54034 23.9464 9.70406 23.8772 9.87543 23.8754H19.7589C19.9294 23.8786 20.0918 23.9483 20.2112 24.0696C20.3306 24.1908 20.3975 24.3539 20.3975 24.5238C20.3975 24.6937 20.3306 24.8568 20.2112 24.978C20.0918 25.0993 19.9294 25.169 19.7589 25.1722H9.87543Z" fill="#F8D14A"/>
<path fill-rule="evenodd" clip-rule="evenodd" d="M10.9059 11.959H15.3523C15.9194 11.959 16.3834 12.4213 16.3834 12.9862V13.2106H9.875V12.9862C9.875 12.4213 10.3389 11.959 10.9059 11.959ZM16.3834 13.5641V15.754H14.3643V13.5641H16.3834ZM14.0096 15.754H12.2465V13.5641H14.0096V15.754ZM11.8917 15.754H9.875V13.5641H11.8917V15.754ZM16.3834 16.1075V16.3354C16.3834 16.9002 15.9193 17.3625 15.3523 17.3625H10.9059C10.339 17.3625 9.875 16.9003 9.875 16.3354V16.1075H16.3834Z" fill="#DACD71"/>
</g>
<defs>
<clipPath id="clip0_1855_198965">
<rect width="40" height="30" fill="white"/>
</clipPath>
</defs>
</svg>
