<svg width="373" height="18" viewBox="0 0 373 18" fill="none" xmlns="http://www.w3.org/2000/svg">
<path d="M20.1364 4.8504C5.90121 10.0031 2.96203 10.8043 0.833731 12.6349C0.833728 13.3635 0.685246 13.4785 1.79886 14.2071C10.967 10.9766 22.8091 6.42264 27.5605 7.57305C32.3119 8.72347 34.6876 18.6426 45.0814 17.9268C52.2828 17.4308 50.3525 14.2455 65.4977 8.22496C69.8779 14.3989 77.599 14.9693 82.3504 12.5198C83.8381 11.7529 87.5376 10.2257 90.5169 8.57008C92.1671 13.2107 99.0546 14.7823 103.064 13.2101C106.707 11.7812 109.968 9.79719 115.016 8.22496C128.231 16.8531 125.41 11.6762 144.193 7.26628C156.591 19.8442 165.946 10.6025 180.423 7.45801C194.454 20.1893 202.695 11.9446 216.949 7.45801C224.596 17.4666 231.501 10.7175 245.235 6.46099C262.162 15.741 265.28 9.03025 280.203 6.15421C292.304 17.9268 297.724 6.42264 313.76 6.76777C320.07 12.865 327.526 11.7019 340.412 6.92115C340.412 6.92115 343.034 9.03124 346.5 9.33703C351.697 9.79558 351.697 8.64678 360.829 6.42264C364.244 5.59084 366.495 4.89952 372.039 4.65867V1.97435C367.279 2.36659 363.204 2.2123 359.566 3.27817C350.468 5.94388 347.81 4.9767 346.055 3.5466C345.406 3.01842 345.587 2.49149 345.015 1.97435C341.155 -1.51519 331.206 4.697 322.223 5.80907C316.952 -0.709958 302.549 1.24577 289.557 6.00082C289.557 6.00082 285.994 2.00961 281.688 1.24578C274.338 -0.0580108 267.582 3.16312 258.896 6.00082C254.957 7.28746 248.799 1.39916 244.567 1.39916C238.182 1.39916 225.19 7.15124 225.19 7.15124C225.19 7.15124 224.987 3.80407 220.884 2.54957C212.643 0.0299697 200.913 7.6881 194.454 9.0686C187.782 10.4947 190.371 4.76925 183.764 2.62626C177.156 0.48328 159.784 8.57008 155.404 8.72347C152.803 8.81454 151.32 3.16313 146.049 2.54957C137.232 1.52328 123.554 7.6881 123.554 7.6881C123.554 7.6881 120.51 3.89172 115.016 3.16313C108.478 2.29595 99.0546 8.07157 99.0546 8.07157C99.0546 8.07157 100.02 3.16313 93.635 2.20445C89.7827 1.62602 74.4808 8.91521 74.4808 8.91521C74.4808 8.91521 71.6402 4.87797 66.6855 3.50825C60.672 1.84582 48.1995 10.7559 42.9284 13.4018C39.8185 14.9629 34.3716 -0.302316 20.1364 4.8504Z" fill="#3864FF"/>
</svg>
