<svg width="268" height="18" viewBox="0 0 268 18" fill="none" xmlns="http://www.w3.org/2000/svg">
<path d="M14.7203 4.50665C4.51398 9.65937 2.40665 10.4605 0.880696 12.2911C0.880694 13.0197 0.774235 13.1348 1.57268 13.8634C8.14605 10.6328 16.6366 6.07889 20.0433 7.2293C23.45 8.37972 25.1533 18.2989 32.6054 17.5831C37.7687 17.0871 36.3847 13.9017 47.2435 7.88121C50.3841 14.0551 55.9199 14.6255 59.3266 12.1761C60.3933 11.4092 63.0457 9.88195 65.1818 8.22633C66.365 12.8669 71.3032 14.4386 74.1776 12.8663C76.7899 11.4375 79.128 9.45344 82.7476 7.88121C92.2224 16.5093 90.1997 11.3325 103.667 6.92253C112.556 19.5004 119.263 10.2587 129.643 7.11426C139.703 19.8455 145.611 11.6009 155.832 7.11426C161.314 17.1229 166.265 10.3738 176.112 6.11724C188.248 15.3973 190.484 8.6865 201.183 5.81046C209.859 17.5831 213.745 6.07889 225.243 6.42402C229.767 12.5212 235.113 11.3581 244.352 6.5774C244.352 6.5774 246.232 8.68749 248.717 8.99328C252.443 9.45183 252.443 8.30303 258.99 6.07889C261.439 5.24709 263.053 4.55577 267.028 4.31492V1.6306C263.615 2.02284 260.694 1.86855 258.085 2.93442C251.562 5.60013 249.656 4.63295 248.398 3.20285C247.933 2.67467 248.063 2.14774 247.652 1.6306C244.884 -1.85894 237.752 4.35325 231.311 5.46532C227.532 -1.05371 217.205 0.902024 207.89 5.65707C207.89 5.65707 205.335 1.66586 202.248 0.902028C196.978 -0.401761 192.134 2.81937 185.906 5.65707C183.082 6.94371 178.667 1.05541 175.633 1.05541C171.055 1.05541 161.74 6.80749 161.74 6.80749C161.74 6.80749 161.595 3.46032 158.653 2.20582C152.744 -0.31378 144.334 7.34435 139.703 8.72485C134.919 10.151 136.775 4.4255 132.038 2.28251C127.301 0.13953 114.845 8.22633 111.704 8.37972C109.84 8.47079 108.777 2.81938 104.997 2.20582C98.6758 1.17953 88.8689 7.34435 88.8689 7.34435C88.8689 7.34435 86.6865 3.54797 82.7476 2.81938C78.0594 1.9522 71.3032 7.72782 71.3032 7.72782C71.3032 7.72782 71.9952 2.81938 67.4175 1.8607C64.6555 1.28227 53.6843 8.57146 53.6843 8.57146C53.6843 8.57146 51.6476 4.53422 48.0952 3.1645C43.7836 1.50207 34.8411 10.4121 31.0618 13.0581C28.832 14.6192 24.9267 -0.646066 14.7203 4.50665Z" fill="white"/>
</svg>
