<svg width="477" height="160" viewBox="0 0 477 160" fill="none" xmlns="http://www.w3.org/2000/svg">
<g clip-path="url(#clip0_1584_66833)">
<rect width="477" height="160" fill="#BF37FF"/>
<circle cx="27.599" cy="192.442" r="48.599" fill="white"/>
<circle cx="80.4396" cy="163.44" r="19.4396" fill="white"/>
<circle cx="260.065" cy="155.182" r="19.4396" fill="white"/>
<circle cx="125.607" cy="168.142" r="32.3994" fill="white"/>
<circle cx="287.604" cy="176.241" r="32.3994" fill="white"/>
<circle cx="339.444" cy="178.192" r="51.029" fill="white"/>
<circle cx="449.601" cy="174.948" r="32.3994" fill="white"/>
<circle cx="389.662" cy="158.751" r="19.4396" fill="white"/>
<circle cx="383.992" cy="168.141" r="19.4396" fill="white"/>
<circle cx="413.961" cy="169.282" r="13.7697" fill="white"/>
<circle cx="195.265" cy="176.829" r="59.9388" fill="white"/>
<path d="M122.05 73.32C119.81 73.32 117.847 72.872 116.162 71.976C114.498 71.0587 113.197 69.7787 112.258 68.136C111.341 66.472 110.882 64.52 110.882 62.28C110.882 60.04 111.341 58.0987 112.258 56.456C113.197 54.792 114.498 53.512 116.162 52.616C117.847 51.6987 119.81 51.24 122.05 51.24C124.333 51.24 126.306 51.6987 127.97 52.616C129.634 53.512 130.925 54.792 131.842 56.456C132.781 58.0987 133.25 60.04 133.25 62.28C133.25 64.52 132.781 66.472 131.842 68.136C130.925 69.7787 129.634 71.0587 127.97 71.976C126.306 72.872 124.333 73.32 122.05 73.32ZM122.05 69.992C123.735 69.992 125.133 69.7253 126.242 69.192C127.373 68.6373 128.215 67.7947 128.77 66.664C129.325 65.512 129.602 64.0507 129.602 62.28C129.602 60.488 129.325 59.0267 128.77 57.896C128.215 56.7653 127.373 55.9333 126.242 55.4C125.133 54.8453 123.735 54.568 122.05 54.568C120.365 54.568 118.957 54.8453 117.826 55.4C116.717 55.9333 115.885 56.7653 115.33 57.896C114.797 59.0267 114.53 60.488 114.53 62.28C114.53 64.0507 114.797 65.512 115.33 66.664C115.885 67.7947 116.717 68.6373 117.826 69.192C118.957 69.7253 120.365 69.992 122.05 69.992ZM139.259 73H135.803V57.096H138.971V61.608L139.259 61.768V73ZM139.259 64.072H138.491V61.384H139.195C139.344 60.5093 139.643 59.7307 140.091 59.048C140.539 58.344 141.136 57.7893 141.883 57.384C142.651 56.9787 143.579 56.776 144.667 56.776C145.883 56.776 146.875 57.032 147.643 57.544C148.411 58.056 148.966 58.7387 149.307 59.592C149.67 60.4453 149.851 61.3733 149.851 62.376V64.456H146.427V63.048C146.427 61.896 146.171 61.0533 145.659 60.52C145.147 59.9867 144.294 59.72 143.099 59.72C141.734 59.72 140.752 60.0933 140.155 60.84C139.558 61.5867 139.259 62.664 139.259 64.072ZM159.03 73.32C157.345 73.32 155.915 72.9787 154.742 72.296C153.59 71.592 152.715 70.6213 152.118 69.384C151.521 68.1253 151.222 66.6853 151.222 65.064C151.222 63.4 151.521 61.9493 152.118 60.712C152.715 59.4747 153.579 58.5147 154.71 57.832C155.841 57.128 157.206 56.776 158.806 56.776C160.683 56.776 162.166 57.2133 163.254 58.088C164.342 58.9627 165.046 60.072 165.366 61.416H166.166V64.968H165.558C165.558 63.2827 165.078 62.024 164.118 61.192C163.158 60.3387 161.793 59.912 160.022 59.912C158.934 59.912 157.985 60.0827 157.174 60.424C156.363 60.744 155.745 61.2773 155.318 62.024C154.913 62.7707 154.71 63.784 154.71 65.064C154.71 66.3227 154.913 67.3253 155.318 68.072C155.745 68.8187 156.363 69.352 157.174 69.672C157.985 69.992 158.955 70.152 160.086 70.152C161.217 70.152 162.187 69.9813 162.998 69.64C163.83 69.2773 164.459 68.7227 164.886 67.976C165.334 67.2293 165.558 66.312 165.558 65.224H166.166L166.39 68.424H165.622C165.302 70.0027 164.566 71.2187 163.414 72.072C162.283 72.904 160.822 73.32 159.03 73.32ZM169.014 73H165.846V68.008L165.558 67.592V51.56H169.014V73ZM180.209 73.32C178.481 73.32 176.967 73 175.665 72.36C174.364 71.72 173.351 70.7813 172.625 69.544C171.921 68.3067 171.569 66.8133 171.569 65.064C171.569 63.4 171.921 61.9493 172.625 60.712C173.351 59.4747 174.353 58.5147 175.633 57.832C176.913 57.128 178.417 56.776 180.145 56.776C181.788 56.776 183.228 57.0747 184.465 57.672C185.724 58.248 186.695 59.1013 187.377 60.232C188.081 61.3413 188.433 62.7067 188.433 64.328C188.433 64.6053 188.423 64.872 188.401 65.128C188.38 65.3627 188.348 65.5973 188.305 65.832H173.777V63.912H186.033L185.137 65.096C185.159 64.8827 185.169 64.68 185.169 64.488C185.169 64.2747 185.169 64.0613 185.169 63.848C185.169 62.376 184.743 61.288 183.889 60.584C183.057 59.8587 181.788 59.496 180.081 59.496C178.183 59.496 176.828 59.9333 176.017 60.808C175.207 61.6827 174.801 62.9413 174.801 64.584V65.416C174.801 67.08 175.207 68.3493 176.017 69.224C176.828 70.0987 178.193 70.536 180.113 70.536C181.777 70.536 182.972 70.28 183.697 69.768C184.444 69.2347 184.817 68.4987 184.817 67.56V67.304H188.273V67.592C188.273 68.7227 187.921 69.7253 187.217 70.6C186.535 71.4533 185.585 72.1253 184.369 72.616C183.175 73.0853 181.788 73.32 180.209 73.32ZM194.478 73H191.022V57.096H194.19V61.608L194.478 61.768V73ZM194.478 64.072H193.71V61.384H194.414C194.563 60.5093 194.862 59.7307 195.31 59.048C195.758 58.344 196.355 57.7893 197.102 57.384C197.87 56.9787 198.798 56.776 199.886 56.776C201.102 56.776 202.094 57.032 202.862 57.544C203.63 58.056 204.185 58.7387 204.526 59.592C204.889 60.4453 205.07 61.3733 205.07 62.376V64.456H201.646V63.048C201.646 61.896 201.39 61.0533 200.878 60.52C200.366 59.9867 199.513 59.72 198.318 59.72C196.953 59.72 195.971 60.0933 195.374 60.84C194.777 61.5867 194.478 62.664 194.478 64.072ZM221.701 73.32C219.589 73.32 217.808 73.0213 216.357 72.424C214.928 71.8267 213.851 70.984 213.125 69.896C212.4 68.7867 212.037 67.4853 212.037 65.992V65.8H215.493V66.312C215.493 67.1653 215.685 67.88 216.069 68.456C216.453 69.0107 217.093 69.4373 217.989 69.736C218.885 70.0133 220.123 70.152 221.701 70.152C223.067 70.152 224.155 70.056 224.965 69.864C225.776 69.6507 226.352 69.3307 226.693 68.904C227.056 68.456 227.237 67.9013 227.237 67.24C227.237 66.3013 226.939 65.6187 226.341 65.192C225.744 64.7653 224.773 64.424 223.429 64.168L218.181 63.304C216.987 63.0693 215.92 62.728 214.981 62.28C214.043 61.8107 213.307 61.192 212.773 60.424C212.261 59.6347 212.005 58.6533 212.005 57.48C212.005 56.712 212.176 55.9547 212.517 55.208C212.859 54.4613 213.392 53.7893 214.117 53.192C214.843 52.5947 215.781 52.1253 216.933 51.784C218.107 51.4213 219.536 51.24 221.221 51.24C223.312 51.24 225.029 51.56 226.373 52.2C227.717 52.84 228.709 53.7147 229.349 54.824C230.011 55.912 230.341 57.16 230.341 58.568V58.76H226.917V58.344C226.917 57.4693 226.725 56.744 226.341 56.168C225.957 55.5707 225.328 55.1333 224.453 54.856C223.579 54.5573 222.395 54.408 220.901 54.408C219.6 54.408 218.544 54.5147 217.733 54.728C216.944 54.9413 216.368 55.2613 216.005 55.688C215.643 56.0933 215.461 56.6267 215.461 57.288C215.461 57.8853 215.589 58.376 215.845 58.76C216.101 59.144 216.496 59.4533 217.029 59.688C217.563 59.9013 218.245 60.104 219.077 60.296L224.293 61.192C225.723 61.448 226.907 61.832 227.845 62.344C228.805 62.856 229.52 63.5067 229.989 64.296C230.459 65.0853 230.693 66.0027 230.693 67.048C230.693 68.136 230.384 69.16 229.765 70.12C229.147 71.08 228.176 71.8587 226.853 72.456C225.531 73.032 223.813 73.32 221.701 73.32ZM239.771 73.32C238.278 73.32 237.04 73.0213 236.059 72.424C235.078 71.8267 234.342 71.0267 233.851 70.024C233.36 69.0213 233.115 67.9013 233.115 66.664V57.096H236.539V65.736C236.539 67.208 236.902 68.328 237.627 69.096C238.374 69.8427 239.59 70.216 241.275 70.216C243.046 70.216 244.336 69.7787 245.147 68.904C245.979 68.008 246.395 66.696 246.395 64.968L247.003 64.936L247.195 68.072H246.459C246.31 68.968 245.968 69.8107 245.435 70.6C244.902 71.3893 244.166 72.04 243.227 72.552C242.31 73.064 241.158 73.32 239.771 73.32ZM249.851 73H246.683V68.008L246.395 67.848V57.096H249.851V73ZM281.119 73H277.695V64.36C277.695 62.7813 277.364 61.64 276.703 60.936C276.041 60.232 274.932 59.88 273.375 59.88C271.689 59.88 270.495 60.3173 269.791 61.192C269.108 62.0453 268.767 63.3573 268.767 65.128L268.159 65.16L267.967 62.024H268.671C268.82 61.1067 269.129 60.2533 269.599 59.464C270.068 58.6747 270.74 58.0347 271.615 57.544C272.489 57.032 273.588 56.776 274.911 56.776C276.297 56.776 277.449 57.064 278.367 57.64C279.284 58.216 279.967 59.0053 280.415 60.008C280.884 61.0107 281.119 62.152 281.119 63.432V73ZM256.447 73H252.991V57.096H256.159V62.088L256.447 62.248V73ZM268.767 73H265.343V64.36C265.343 62.7813 265.012 61.64 264.351 60.936C263.689 60.232 262.591 59.88 261.055 59.88C259.348 59.88 258.153 60.3173 257.471 61.192C256.788 62.0453 256.447 63.3573 256.447 65.128L255.839 65.16L255.679 61.896H256.351C256.5 61 256.799 60.168 257.247 59.4C257.695 58.632 258.345 58.0027 259.199 57.512C260.052 57.0213 261.14 56.776 262.463 56.776C263.849 56.776 264.991 57.0747 265.887 57.672C266.783 58.248 267.455 59.0373 267.903 60.04C268.351 61.0427 268.575 62.1733 268.575 63.432H268.767V73ZM312.337 73H308.913V64.36C308.913 62.7813 308.583 61.64 307.921 60.936C307.26 60.232 306.151 59.88 304.593 59.88C302.908 59.88 301.713 60.3173 301.009 61.192C300.327 62.0453 299.985 63.3573 299.985 65.128L299.377 65.16L299.185 62.024H299.889C300.039 61.1067 300.348 60.2533 300.817 59.464C301.287 58.6747 301.959 58.0347 302.833 57.544C303.708 57.032 304.807 56.776 306.129 56.776C307.516 56.776 308.668 57.064 309.585 57.64C310.503 58.216 311.185 59.0053 311.633 60.008C312.103 61.0107 312.337 62.152 312.337 63.432V73ZM287.665 73H284.209V57.096H287.377V62.088L287.665 62.248V73ZM299.985 73H296.561V64.36C296.561 62.7813 296.231 61.64 295.569 60.936C294.908 60.232 293.809 59.88 292.273 59.88C290.567 59.88 289.372 60.3173 288.689 61.192C288.007 62.0453 287.665 63.3573 287.665 65.128L287.057 65.16L286.897 61.896H287.569C287.719 61 288.017 60.168 288.465 59.4C288.913 58.632 289.564 58.0027 290.417 57.512C291.271 57.0213 292.359 56.776 293.681 56.776C295.068 56.776 296.209 57.0747 297.105 57.672C298.001 58.248 298.673 59.0373 299.121 60.04C299.569 61.0427 299.793 62.1733 299.793 63.432H299.985V73ZM330.468 73H327.3V68.904L327.076 68.808V63.368C327.076 62.0453 326.756 61.128 326.116 60.616C325.497 60.0827 324.42 59.816 322.884 59.816C321.412 59.816 320.313 60.072 319.588 60.584C318.863 61.096 318.5 61.9387 318.5 63.112V63.24H315.076V63.112C315.076 61.896 315.396 60.8187 316.036 59.88C316.676 58.92 317.593 58.1627 318.788 57.608C320.004 57.0533 321.455 56.776 323.14 56.776C324.825 56.776 326.201 57.064 327.268 57.64C328.356 58.1947 329.156 58.9627 329.668 59.944C330.201 60.9253 330.468 62.056 330.468 63.336V73ZM320.1 73.32C318.457 73.32 317.145 72.9573 316.164 72.232C315.204 71.4853 314.724 70.4613 314.724 69.16C314.724 68.328 314.927 67.6347 315.332 67.08C315.759 66.504 316.356 66.056 317.124 65.736C317.892 65.416 318.799 65.192 319.844 65.064L327.396 64.264V66.312L320.836 67.048C319.94 67.1547 319.268 67.3467 318.82 67.624C318.393 67.88 318.18 68.3173 318.18 68.936C318.18 69.576 318.404 70.056 318.852 70.376C319.321 70.6747 320.047 70.824 321.028 70.824C322.244 70.824 323.3 70.6747 324.196 70.376C325.092 70.056 325.796 69.5653 326.308 68.904C326.82 68.2427 327.076 67.3893 327.076 66.344L327.524 66.408V69.032H327.076C326.649 70.376 325.828 71.432 324.612 72.2C323.417 72.9467 321.913 73.32 320.1 73.32ZM337.009 73H333.553V57.096H336.721V61.608L337.009 61.768V73ZM337.009 64.072H336.241V61.384H336.945C337.094 60.5093 337.393 59.7307 337.841 59.048C338.289 58.344 338.886 57.7893 339.633 57.384C340.401 56.9787 341.329 56.776 342.417 56.776C343.633 56.776 344.625 57.032 345.393 57.544C346.161 58.056 346.716 58.7387 347.057 59.592C347.42 60.4453 347.601 61.3733 347.601 62.376V64.456H344.177V63.048C344.177 61.896 343.921 61.0533 343.409 60.52C342.897 59.9867 342.044 59.72 340.849 59.72C339.484 59.72 338.502 60.0933 337.905 60.84C337.308 61.5867 337.009 62.664 337.009 64.072ZM352.332 78.44H350.06V75.304H353.164C353.868 75.304 354.391 75.1867 354.732 74.952C355.095 74.7387 355.393 74.3653 355.628 73.832L356.62 71.688L356.236 73.448L348.172 57.096H352.044L356.108 65.544L357.676 69.352H357.932L359.436 65.512L363.18 57.096H366.988L358.7 74.728C358.273 75.6667 357.772 76.4027 357.196 76.936C356.62 77.4907 355.937 77.8747 355.148 78.088C354.359 78.3227 353.42 78.44 352.332 78.44Z" fill="white"/>
</g>
<defs>
<clipPath id="clip0_1584_66833">
<rect width="477" height="160" fill="white"/>
</clipPath>
</defs>
</svg>
