<svg width="30" height="30" viewBox="0 0 30 30" fill="none" xmlns="http://www.w3.org/2000/svg">
<path d="M14.6831 15.9301C18.7007 15.8825 21.7319 14.2837 23.0097 10.5633C24.2935 6.94974 23.9666 3.60961 20.3946 2.22474C18.0827 1.32732 17.3219 1.54722 8.27022 1.54722C7.68182 1.54722 7.17071 1.98111 7.08147 2.55164L3.59878 24.6549C3.53936 25.0887 3.8662 25.481 4.31784 25.481H8.75157C8.87045 25.481 8.912 25.4395 8.92987 25.3325C9.1735 23.8288 9.99973 18.5095 10.2077 17.3684C10.5525 15.514 12.1037 15.9718 14.6831 15.9301Z" fill="#002D8A"/>
<path d="M24.8107 8.81616C24.7038 8.73888 24.6622 8.70911 24.6324 8.89333C24.5136 9.57097 24.3293 10.2306 24.1094 10.8904C21.738 17.6539 15.1646 17.0655 11.9552 17.0655C11.5926 17.0655 11.3549 17.2617 11.3073 17.6241C9.9642 25.9685 9.69672 27.7099 9.69672 27.7099C9.63725 28.1319 9.90473 28.4766 10.3267 28.4766H14.1007C14.6119 28.4766 15.0339 28.1022 15.1349 27.5912C15.1765 27.2701 15.0696 27.9537 15.9907 22.1649C16.2641 20.8574 16.8406 20.9942 17.7321 20.9942C21.952 20.9942 25.2445 19.2824 26.2251 14.3198C26.6116 12.2514 26.4987 10.0761 24.8107 8.81616Z" fill="#019BE1"/>
</svg>
