<svg width="90" height="90" viewBox="0 0 90 90" fill="none" xmlns="http://www.w3.org/2000/svg">
<path d="M74.7065 9.9914C73.6666 9.15258 72.5559 8.30426 71.3614 7.69791C70.2314 7.12426 68.9178 6.78011 67.7039 7.3089C67.1049 7.56983 66.6202 8.01797 66.1833 8.49421C65.6818 9.04077 65.1954 9.60182 64.7025 10.156C63.6633 11.3241 62.6243 12.4922 61.5852 13.6602C57.4453 18.3139 53.3054 22.9676 49.1655 27.6213C48.1594 28.7523 47.1533 29.8833 46.1472 31.0143C45.9209 31.2687 46.0182 31.5873 46.2215 31.7551C46.3965 31.8995 46.6496 31.9326 46.8454 31.7125C49.9891 28.1787 53.1327 24.6449 56.2763 21.1111C57.1259 21.9583 57.9896 22.791 58.8651 23.6111C58.8361 23.63 58.8088 23.652 58.7845 23.6784C57.8102 24.7409 56.8359 25.8033 55.8616 26.8657C55.6814 27.0622 55.6673 27.3697 55.8616 27.5639C55.8635 27.5659 55.8661 27.5672 55.868 27.5692C56.0519 27.7462 56.3808 27.7591 56.5598 27.5639C57.5341 26.5015 58.5085 25.4391 59.4828 24.3766C59.515 24.3415 59.5399 24.302 59.5612 24.2611C60.3673 25.0038 61.1845 25.7344 62.0115 26.4538C60.3877 28.4793 58.7173 30.4669 57.001 32.4146C56.7808 32.6645 56.8699 32.9752 57.064 33.1458C57.2391 33.2995 57.4995 33.3395 57.6992 33.1129C59.4261 31.1531 61.1067 29.1532 62.7399 27.1147C62.7454 27.1079 62.7495 27.1003 62.7547 27.0933C63.6662 27.8726 64.5884 28.6396 65.524 29.3902C65.5513 29.4122 65.5801 29.4315 65.6098 29.4487C63.9696 31.3087 62.3279 33.1675 60.6885 35.0283C56.6502 39.6123 52.6144 44.1987 48.5813 48.7873C44.5482 53.376 40.5177 57.967 36.49 62.5603C35.7125 63.4469 34.9352 64.3337 34.1579 65.2205C34.1255 64.6754 33.9288 64.154 33.4899 63.7288C32.9416 63.1978 32.2645 63.0379 31.5766 63.0941C34.1003 60.2909 36.6032 57.4691 39.0785 54.6232C41.7837 51.5131 44.4597 48.3775 47.106 45.2171C48.5902 43.4446 50.065 41.6641 51.5306 39.8761C51.6622 39.7156 51.7093 39.5042 51.6291 39.3231C51.6064 39.2718 51.5751 39.2225 51.5306 39.178C51.3564 39.0037 51.0023 38.9707 50.8324 39.178C48.2306 42.3519 45.5997 45.502 42.9393 48.627C40.2672 51.7657 37.5658 54.8793 34.8353 57.9672C33.4837 59.4958 32.1238 61.0169 30.7581 62.5329C30.7866 61.7636 30.5701 61.0168 29.9153 60.4563C29.4397 60.0493 28.7926 59.9566 28.1833 60.002C30.5814 57.4969 32.9043 54.9203 35.138 52.2675C35.8364 51.4381 36.5261 50.6016 37.208 49.7586C37.3755 49.5515 37.4105 49.2629 37.208 49.0604C37.1647 49.0171 37.11 48.9825 37.0497 48.9581C36.8684 48.8848 36.6362 48.9041 36.5098 49.0604C34.1341 51.9972 31.6581 54.8525 29.0847 57.6176C28.469 58.2791 27.8445 58.9323 27.218 59.5835C27.2139 59.5407 27.2119 59.498 27.2054 59.455C27.1133 58.8483 26.7444 58.3711 26.25 58.0274C25.7191 57.6585 25.1097 57.4691 24.5116 57.4855C25.1215 56.6528 25.775 55.8507 26.4399 55.0548C29.17 51.7867 31.9375 48.5497 34.7407 45.3439C37.5447 42.1372 40.3848 38.9618 43.26 35.8187C43.6225 35.4225 43.9855 35.0269 44.349 34.6317C44.5674 34.3943 44.4943 34.0974 44.3135 33.9237C44.1386 33.7556 43.8629 33.7029 43.6508 33.9334C40.7426 37.0953 37.8697 40.2891 35.0336 43.5155C32.2093 46.7283 29.4212 49.9729 26.67 53.2487C25.34 54.8323 23.9674 56.4031 22.8456 58.1455C21.7419 59.8599 20.9512 61.7404 20.1713 63.6169C18.8332 66.8364 17.4617 70.0422 16.0691 73.2385C14.8713 75.9877 13.6649 78.7346 12.3978 81.4527C12.2857 81.6932 12.1728 81.9334 12.0591 82.1731C11.9449 82.4139 11.9923 82.706 12.2362 82.8486C12.3195 82.8974 12.4223 82.9173 12.5239 82.9103C12.6811 82.9754 12.8659 82.957 13.0172 82.7889C13.1111 82.6846 13.2344 82.6003 13.3437 82.5135C13.4407 82.4364 13.5386 82.3604 13.6366 82.2845C13.6688 82.2597 13.7647 82.1857 13.7896 82.1666C13.8655 82.1084 13.9416 82.0504 14.0177 81.9924C14.8425 81.3641 15.6736 80.7441 16.5049 80.1245C18.9123 78.3304 21.328 76.5475 23.7421 74.7625C26.0704 73.0409 28.4004 71.3214 30.7189 69.5868C31.4563 69.0353 32.1936 68.4833 32.9214 67.9193C33.0882 67.7901 33.245 67.6526 33.3977 67.5114C33.4858 67.4753 33.5658 67.4077 33.6249 67.2991C33.6267 67.2959 33.6282 67.2925 33.6299 67.2893C34.1582 66.7642 34.6248 66.1827 35.1254 65.6115C39.2505 60.9054 43.3784 56.2017 47.5091 51.5004C51.6069 46.8364 55.7076 42.1749 59.8109 37.5157C63.9471 32.8192 68.0861 28.1253 72.2278 23.4337C73.2468 22.2794 74.266 21.1253 75.2853 19.9713C76.1724 18.967 77.1966 17.9623 77.6161 16.6551C78.4563 14.037 76.6371 11.5486 74.7065 9.9914Z" fill="#321C27"/>
<path d="M32.7923 64.4299C32.0465 63.7101 30.8625 64.1799 30.096 64.6125C29.6349 64.8726 29.2263 64.3677 29.4205 63.937C29.5768 63.5902 29.7586 63.1149 29.7887 62.6645C29.8239 62.1373 29.6712 61.5117 29.2439 61.1787C28.9281 60.9327 28.3768 60.951 27.9708 61.0148C27.4945 61.0896 27.0318 61.2303 26.6357 61.4842C26.1986 61.7644 25.7426 61.224 25.9602 60.8087C26.322 60.118 26.4139 59.3179 25.69 58.8409C25.0508 58.4198 24.2316 58.2745 23.6154 58.817C23.6074 58.8241 23.5988 58.8284 23.5907 58.8348C23.3342 59.238 23.0894 59.6495 22.8622 60.0738C21.9739 61.7334 21.2903 63.4909 20.5637 65.2246C19.2021 68.4729 17.8131 71.7098 16.3996 74.9359C16.3849 74.9694 16.3701 75.0028 16.3555 75.0363C17.0724 75.9056 17.9016 76.5937 18.7828 77.2155C20.7499 75.7578 22.7183 74.302 24.6866 72.846C26.814 71.2723 28.9435 69.7009 31.0577 68.1094C31.3961 67.8547 31.7341 67.5994 32.0703 67.3418C32.1065 67.314 32.2069 67.2368 32.235 67.2152C32.2596 67.1961 32.3425 67.1318 32.3676 67.1122C32.4567 67.0426 32.5457 66.9729 32.6335 66.9017C32.692 66.8543 32.7459 66.8029 32.7999 66.7516C33.1744 66.0418 33.4456 65.0605 32.7923 64.4299Z" fill="#FBCC9D"/>
<path d="M58.7847 23.6806C58.8089 23.6542 58.8362 23.6322 58.8652 23.6133C57.9897 22.7932 57.126 21.9605 56.2764 21.1133C53.1328 24.6471 49.9892 28.1809 46.8456 31.7147C46.6497 31.9348 46.3966 31.9017 46.2216 31.7573L45.7504 32.2929C45.7996 32.3167 45.846 32.3455 45.8859 32.3852C45.9116 32.4185 45.9374 32.4518 45.9631 32.4851C46.0078 32.5621 46.0302 32.6452 46.0306 32.7343C46.0247 32.778 46.0188 32.8218 46.0129 32.8655C45.9976 32.9298 45.9682 32.9857 45.9245 33.0334C45.8897 33.0872 45.8435 33.1296 45.786 33.1606C45.7293 33.1967 45.6682 33.2162 45.6025 33.2192C45.5368 33.2339 45.4712 33.2309 45.4056 33.2104C45.3671 33.2041 45.3287 33.1979 45.2902 33.1916C45.2065 33.1681 45.1339 33.1258 45.0723 33.0646C45.0721 33.0645 45.072 33.0643 45.0719 33.0641L44.3136 33.926C44.4944 34.0997 44.5675 34.3966 44.3491 34.634C43.9856 35.0292 43.6226 35.4248 43.2601 35.821C40.3848 38.9641 37.5448 42.1394 34.7408 45.3463C31.9376 48.552 29.1701 51.7889 26.44 55.0571C25.7751 55.8531 25.1216 56.6551 24.5117 57.4878C25.1098 57.4713 25.7192 57.6608 26.2501 58.0297C26.7445 58.3734 27.1134 58.8507 27.2054 59.4573C27.212 59.5004 27.214 59.543 27.218 59.5858C27.8445 58.9346 28.4691 58.2814 29.0847 57.6199C31.6582 54.8548 34.1342 51.9995 36.5098 49.0627C36.6363 48.9064 36.8685 48.8871 37.0498 48.9605L37.3008 48.6751C37.167 48.3827 37.3082 47.9538 37.7274 47.9538C37.7948 47.9538 37.8534 47.9668 37.9065 47.9867L55.8681 27.5714C55.8661 27.5695 55.8636 27.5682 55.8617 27.5662C55.6674 27.3719 55.6815 27.0644 55.8617 26.868C56.8361 25.8055 57.8104 24.743 58.7847 23.6806Z" fill="#F8B04C"/>
<path d="M52.4297 39.1664C52.2123 39.1664 52.0712 39.0503 52.0025 38.8987L51.6287 39.3236C51.7089 39.5047 51.6618 39.7161 51.5302 39.8766C50.0645 41.6646 48.5898 43.4451 47.1055 45.2176C44.4592 48.378 41.7832 51.5135 39.0781 54.6237C36.6027 57.4696 34.0999 60.2914 31.5762 63.0946C32.2641 63.0384 32.9412 63.1983 33.4894 63.7293C33.9284 64.1545 34.125 64.6759 34.1575 65.221C34.9348 64.3342 35.712 63.4474 36.4895 62.5607C40.5173 57.9674 44.5478 53.3764 48.5809 48.7878C52.6139 44.1992 56.6497 39.6128 60.6881 35.0288C62.3274 33.168 63.9692 31.3092 65.6093 29.4492C65.5796 29.432 65.5508 29.4127 65.5235 29.3907C64.588 28.64 63.6657 27.8731 62.7542 27.0938C62.749 27.1008 62.745 27.1084 62.7394 27.1152C61.1063 29.1537 59.4256 31.1536 57.6987 33.1134C57.499 33.34 57.2386 33.3 57.0635 33.1462L52.6073 38.2113C53.0573 38.3773 52.9984 39.1664 52.4297 39.1664Z" fill="#F8B04C"/>
<path d="M57.0013 32.4152C58.7176 30.4675 60.388 28.4799 62.0118 26.4544C61.1848 25.735 60.3676 25.0044 59.5615 24.2617C59.5402 24.3026 59.5153 24.3421 59.4831 24.3772C58.5087 25.4396 57.5345 26.5021 56.5602 27.5645C56.3812 27.7597 56.0523 27.7468 55.8684 27.5697L37.9068 47.985C38.3551 48.1522 38.2956 48.9396 37.7276 48.9396C37.5111 48.9396 37.3702 48.8243 37.3011 48.6735L37.0501 48.9588C37.1103 48.9832 37.165 49.0178 37.2083 49.0611C37.4108 49.2636 37.3759 49.5521 37.2083 49.7593C36.5264 50.6023 35.8367 51.4388 35.1383 52.2681C32.9046 54.9209 30.5817 57.4975 28.1836 60.0026C28.793 59.9572 29.4401 60.0499 29.9156 60.457C30.5704 61.0174 30.7869 61.7642 30.7584 62.5336C32.1241 61.0175 33.4841 59.4964 34.8357 57.9679C37.5661 54.8799 40.2676 51.7663 42.9396 48.6277C45.6 45.5027 48.231 42.3526 50.8328 39.1786C51.0026 38.9714 51.3567 39.0043 51.5309 39.1786C51.5755 39.2231 51.6067 39.2724 51.6295 39.3237L52.0033 38.8989C51.8706 38.6064 52.0121 38.1791 52.4304 38.1791C52.4972 38.1791 52.5553 38.192 52.608 38.2114L57.0643 33.1464C56.8702 32.9758 56.7812 32.6651 57.0013 32.4152Z" fill="#FDC852"/>
<path d="M69.3296 19.2685C69.2536 19.2024 69.1777 19.1364 69.1016 19.0704C67.7788 17.9209 66.456 16.7713 65.1332 15.6218C64.3867 14.9732 63.6402 14.3245 62.8938 13.6758C62.6837 13.9119 62.4737 14.148 62.2637 14.3841L68.6688 20.0195L69.3296 19.2685Z" fill="#B3B3B3"/>
<path d="M64.8623 24.3437L58.4334 18.6875C57.9335 19.2495 57.4335 19.8115 56.9336 20.3735C58.9582 22.3943 61.0585 24.3377 63.2273 26.202L64.8623 24.3437Z" fill="#B3B3B3"/>
<path d="M76.7303 14.5019C76.5483 13.6812 76.1573 12.9548 75.6516 12.3073C75.6762 12.6891 75.6496 13.0738 75.5912 13.4548C75.3624 14.9482 74.5351 16.2127 73.5254 17.303C73.0925 17.7705 72.3959 17.0706 72.8272 16.6048C73.6969 15.6657 74.3894 14.607 74.6163 13.3294C74.7006 12.8549 74.7127 12.3538 74.5943 11.8842C74.4461 11.2964 74.1049 10.8206 73.6615 10.4155C73.6423 10.3979 73.628 10.3793 73.6125 10.3609C72.9657 9.85601 72.283 9.38958 71.5962 8.9646C70.5802 8.33589 69.2217 7.66359 68.035 8.23689C67.4694 8.51006 67.0481 9.00186 66.6375 9.46246C66.1421 10.0182 65.6479 10.5749 65.1531 11.1311C64.6183 11.7323 64.0836 12.3334 63.5488 12.9345C63.7889 13.1432 64.029 13.3518 64.2691 13.5605C65.592 14.71 66.9148 15.8595 68.2376 17.009C69.062 17.7254 69.8863 18.4417 70.7107 19.1581C70.9023 19.3246 70.9044 19.5346 70.8094 19.7015L71.276 20.112C71.3167 20.1016 71.3597 20.0944 71.4076 20.0944C71.7497 20.0944 71.9059 20.3796 71.88 20.6434L72.7218 21.3841C72.7682 21.3315 72.8145 21.2788 72.8609 21.2263C73.826 20.1333 74.8316 19.0647 75.753 17.9344C76.5702 16.9317 77.0184 15.7999 76.7303 14.5019Z" fill="#EA5449"/>
<path d="M73.4309 10.7608C71.4847 8.66256 68.5368 7.79006 67.239 9.30913C65.9614 10.7878 65.0078 12.1898 65.0078 12.1898L71.1286 17.6289C71.1286 17.6289 72.2462 16.1281 73.0446 15.2206C73.912 14.2313 74.7414 12.1737 73.4309 10.7608Z" fill="#F08267"/>
<path d="M66.1254 22.9071L59.7044 17.2578C59.4755 17.515 59.2467 17.7722 59.0179 18.0295C58.8232 18.2484 58.6284 18.4674 58.4336 18.6863L64.8625 24.3426L66.1254 22.9071Z" fill="#EDEDED"/>
<path d="M68.6682 20.0181L62.263 14.3828C61.8394 14.859 61.4158 15.3352 60.9922 15.8114L67.4053 21.4536L68.6682 20.0181Z" fill="#EDEDED"/>
<path d="M66.1245 22.9093L64.8616 24.3448L63.2266 26.2032C64.2113 27.0497 65.2086 27.8816 66.2215 28.6944C66.2326 28.7033 66.2403 28.7146 66.2499 28.7245C66.7728 28.1318 67.2955 27.5389 67.8184 26.9462L64.8616 24.3448L66.1245 22.9093L69.083 25.5123C69.5108 25.0275 69.9382 24.5424 70.366 24.0577L67.4057 21.4531L66.1245 22.9093Z" fill="#8F8F8F"/>
<path d="M71.4063 21.0842C70.8179 21.0842 70.7757 20.2416 71.2747 20.1143L70.8081 19.7039C70.6647 19.9555 70.2984 20.1082 70.0112 19.8587C69.7837 19.661 69.5562 19.4633 69.3287 19.2656L68.668 20.0166L71.6301 22.6227C71.9938 22.2108 72.3568 21.7983 72.7205 21.3864L71.8787 20.6458C71.8565 20.8728 71.7002 21.0842 71.4063 21.0842Z" fill="#8F8F8F"/>
<path d="M64.8613 24.3457L67.8181 26.947C68.2397 26.4691 68.6612 25.991 69.0828 25.5131L66.1243 22.9102L64.8613 24.3457Z" fill="#B3B3B3"/>
<path d="M68.6703 20.0193L67.4073 21.4548L60.9943 15.8125C60.5645 16.2955 60.1348 16.7786 59.7051 17.2617L66.1261 22.9109L67.4073 21.4548L70.3676 24.0593C70.7893 23.5814 71.2105 23.1031 71.6323 22.6254L68.6703 20.0193Z" fill="#B3B3B3"/>
<path d="M45.2903 33.1889C45.3288 33.1952 45.3672 33.2014 45.4057 33.2077C45.4713 33.2282 45.5369 33.2312 45.6026 33.2165C45.6683 33.2135 45.7295 33.194 45.7861 33.1579C45.8437 33.1269 45.8898 33.0845 45.9246 33.0307C45.9683 32.983 45.9977 32.9271 46.013 32.8628C46.0189 32.8191 46.0247 32.7753 46.0307 32.7316C46.0304 32.6424 46.0079 32.5594 45.9632 32.4824C45.9375 32.4491 45.9118 32.4158 45.886 32.3825C45.8461 32.3428 45.7997 32.314 45.7505 32.2902C45.7239 32.2773 45.6976 32.2638 45.6682 32.2555C45.6297 32.2492 45.5912 32.243 45.5527 32.2368C45.4871 32.2162 45.4215 32.2133 45.3559 32.2279C45.2901 32.2309 45.229 32.2504 45.1723 32.2865C45.1148 32.3175 45.0686 32.3599 45.0338 32.4137C44.9902 32.4614 44.9607 32.5173 44.9454 32.5816C44.9395 32.6253 44.9337 32.6691 44.9277 32.7128C44.928 32.8019 44.9505 32.885 44.9952 32.962C45.0208 32.9951 45.0463 33.0283 45.072 33.0614C45.0721 33.0616 45.0722 33.0617 45.0724 33.0619C45.134 33.1231 45.2066 33.1655 45.2903 33.1889Z" fill="#321C27"/>
<path d="M24.939 62.0017C24.9151 61.477 25.6425 60.0048 25.0924 59.5838C24.5886 59.1981 23.6903 59.5343 23.1865 60.6166C22.6827 61.6989 19.4299 68.6552 17.2697 73.6657C17.0618 74.148 16.8691 75.166 17.5729 75.1911C18.8167 75.2355 24.8086 67.6762 26.6867 65.8071C27.3164 65.1805 28.7656 63.5036 27.9728 62.5773C27.0334 61.4797 25.0356 64.1217 24.939 62.0017Z" fill="#FEE7D3"/>
<path d="M31.6084 51.6448C31.193 52.1199 31.8865 52.8188 32.3045 52.3409C35.1328 49.1066 37.961 45.8723 40.7893 42.638C43.6176 39.4037 46.4459 36.1694 49.2742 32.9351C50.8696 31.1106 52.4651 29.2861 54.0605 27.4617C54.4759 26.9866 53.7824 26.2876 53.3645 26.7657C50.5362 30 47.7079 33.2342 44.8796 36.4685C42.0513 39.7029 39.223 42.9371 36.3947 46.1714C34.7993 47.9959 33.2039 49.8204 31.6084 51.6448Z" fill="#FDC852"/>
<path d="M54.5523 26.2703C54.6138 26.3313 54.6861 26.3735 54.7695 26.3969C54.7951 26.4011 54.8208 26.4053 54.8465 26.4094C54.9119 26.4299 54.9773 26.4329 55.0427 26.4182C55.1083 26.4153 55.1692 26.3958 55.2257 26.3598C55.2831 26.3289 55.3291 26.2866 55.3638 26.233C55.4073 26.1854 55.4367 26.1297 55.452 26.0656C55.4578 26.022 55.4637 25.9784 55.4695 25.9348C55.4693 25.8459 55.4469 25.7631 55.4023 25.6864C55.3766 25.6532 55.351 25.6199 55.3254 25.5867C55.264 25.5257 55.1916 25.4835 55.1082 25.4602C55.0826 25.456 55.0569 25.4518 55.0313 25.4477C54.9658 25.4271 54.9004 25.4242 54.835 25.4389C54.7695 25.4418 54.7085 25.4613 54.652 25.4973C54.5946 25.5282 54.5486 25.5705 54.5139 25.624C54.4704 25.6716 54.441 25.7274 54.4258 25.7914C54.4199 25.835 54.4141 25.8786 54.4082 25.9222C54.4085 26.0111 54.4309 26.0939 54.4754 26.1706C54.501 26.2039 54.5267 26.2371 54.5523 26.2703Z" fill="#FDC852"/>
<path d="M37.7273 48.9406C38.2953 48.9406 38.3548 48.1532 37.9065 47.986C37.8534 47.9662 37.7947 47.9531 37.7273 47.9531C37.3081 47.9531 37.1669 48.3819 37.3008 48.6745C37.3698 48.8253 37.5107 48.9406 37.7273 48.9406Z" fill="#321C27"/>
<path d="M52.4304 39.1671C52.9991 39.1671 53.058 38.378 52.608 38.212C52.5553 38.1926 52.4971 38.1797 52.4304 38.1797C52.012 38.1797 51.8705 38.607 52.0032 38.8995C52.072 39.051 52.2131 39.1671 52.4304 39.1671Z" fill="#321C27"/>
<path d="M71.4079 21.0851C71.7017 21.0851 71.8581 20.8737 71.8803 20.6467C71.9061 20.3828 71.75 20.0977 71.4079 20.0977C71.36 20.0977 71.3169 20.1048 71.2762 20.1152C70.7772 20.2425 70.8194 21.0851 71.4079 21.0851Z" fill="#321C27"/>
</svg>
