<svg width="250" height="250" viewBox="0 0 250 250" fill="none" xmlns="http://www.w3.org/2000/svg">
<g clip-path="url(#clip0_1259_1170)">
<rect x="37.0361" y="37.0469" width="174" height="174" rx="87" fill="url(#paint0_linear_1259_1170)"/>
<rect x="37.0361" y="37.0469" width="174" height="174" rx="87" stroke="url(#paint1_linear_1259_1170)" stroke-width="6"/>
<g filter="url(#filter0_d_1259_1170)">
<path d="M163.115 92.0703L104.826 156.018L84.957 134.22" stroke="white" stroke-width="17.7632" stroke-linecap="round" stroke-linejoin="round"/>
</g>
<path d="M15.9521 20.3271C16.3373 19.2862 17.8096 19.2862 18.1947 20.3271L22.5338 32.0532C22.6549 32.3805 22.9129 32.6385 23.2401 32.7596L34.9662 37.0986C36.0071 37.4838 36.0071 38.956 34.9662 39.3412L23.2401 43.6802C22.9129 43.8013 22.6549 44.0594 22.5338 44.3866L18.1947 56.1127C17.8096 57.1536 16.3373 57.1536 15.9521 56.1127L11.6131 44.3866C11.492 44.0594 11.234 43.8013 10.9067 43.6802L-0.819349 39.3412C-1.86026 38.956 -1.86026 37.4838 -0.819349 37.0986L10.9067 32.7596C11.234 32.6385 11.492 32.3805 11.6131 32.0532L15.9521 20.3271Z" fill="#89D81A"/>
<path d="M211.414 9.76639C211.799 8.72487 213.272 8.72487 213.658 9.76639L217.03 18.8797C217.151 19.2071 217.409 19.4653 217.737 19.5865L226.85 22.9587C227.891 23.3441 227.891 24.8172 226.85 25.2026L217.737 28.5748C217.409 28.696 217.151 28.9541 217.03 29.2816L213.658 38.3949C213.272 39.4364 211.799 39.4364 211.414 38.3949L208.042 29.2816C207.92 28.9542 207.662 28.696 207.335 28.5748L198.221 25.2026C197.18 24.8172 197.18 23.3441 198.221 22.9587L207.335 19.5865C207.662 19.4653 207.92 19.2071 208.042 18.8797L211.414 9.76639Z" fill="#89D81A"/>
<path d="M13.3558 192.114C13.5768 191.517 14.4219 191.517 14.6429 192.114L17.4114 199.596C17.4809 199.784 17.629 199.932 17.8168 200.001L25.2985 202.77C25.8959 202.991 25.8959 203.836 25.2985 204.057L17.8168 206.825C17.629 206.895 17.4809 207.043 17.4114 207.231L14.6429 214.713C14.4219 215.31 13.5768 215.31 13.3558 214.713L10.5873 207.231C10.5178 207.043 10.3697 206.895 10.1819 206.825L2.7002 204.057C2.10275 203.836 2.10275 202.991 2.7002 202.77L10.1819 200.001C10.3697 199.932 10.5178 199.784 10.5873 199.596L13.3558 192.114Z" fill="#89D81A"/>
<path d="M231.336 181.748C231.491 181.195 232.276 181.195 232.432 181.748L235.414 192.372C235.468 192.563 235.617 192.713 235.808 192.766L246.433 195.749C246.986 195.904 246.986 196.689 246.433 196.845L235.808 199.827C235.617 199.881 235.468 200.03 235.414 200.221L232.432 210.846C232.276 211.399 231.491 211.399 231.336 210.846L228.353 200.221C228.3 200.03 228.15 199.881 227.959 199.827L217.335 196.845C216.781 196.689 216.781 195.904 217.335 195.749L227.959 192.766C228.15 192.713 228.3 192.563 228.353 192.372L231.336 181.748Z" fill="#89D81A"/>
<path d="M65.7643 219.814C66.0842 218.949 67.307 218.949 67.6269 219.814L69.4874 224.842C69.588 225.113 69.8023 225.328 70.0741 225.428L75.102 227.289C75.9665 227.609 75.9665 228.831 75.102 229.151L70.0741 231.012C69.8023 231.112 69.588 231.327 69.4874 231.599L67.6269 236.626C67.307 237.491 66.0842 237.491 65.7643 236.626L63.9038 231.599C63.8033 231.327 63.589 231.112 63.3171 231.012L58.2893 229.151C57.4247 228.831 57.4247 227.609 58.2893 227.289L63.3171 225.428C63.589 225.328 63.8033 225.113 63.9038 224.842L65.7643 219.814Z" fill="#89D81A"/>
</g>
<defs>
<filter id="filter0_d_1259_1170" x="76.0752" y="83.1875" width="95.9209" height="86.4478" filterUnits="userSpaceOnUse" color-interpolation-filters="sRGB">
<feFlood flood-opacity="0" result="BackgroundImageFix"/>
<feColorMatrix in="SourceAlpha" type="matrix" values="0 0 0 0 0 0 0 0 0 0 0 0 0 0 0 0 0 0 127 0" result="hardAlpha"/>
<feOffset dy="4.73684"/>
<feComposite in2="hardAlpha" operator="out"/>
<feColorMatrix type="matrix" values="0 0 0 0 0.156863 0 0 0 0 0.607843 0 0 0 0 0.0313726 0 0 0 1 0"/>
<feBlend mode="normal" in2="BackgroundImageFix" result="effect1_dropShadow_1259_1170"/>
<feBlend mode="normal" in="SourceGraphic" in2="effect1_dropShadow_1259_1170" result="shape"/>
</filter>
<linearGradient id="paint0_linear_1259_1170" x1="75.5067" y1="40.0028" x2="182.933" y2="191.988" gradientUnits="userSpaceOnUse">
<stop stop-color="#A6EB45"/>
<stop offset="1" stop-color="#51BA35"/>
</linearGradient>
<linearGradient id="paint1_linear_1259_1170" x1="182.933" y1="191.988" x2="75.5067" y2="40.0027" gradientUnits="userSpaceOnUse">
<stop stop-color="#90DA29"/>
<stop offset="1" stop-color="#59BF37"/>
</linearGradient>
<clipPath id="clip0_1259_1170">
<rect width="250" height="250" fill="white"/>
</clipPath>
</defs>
</svg>
