<svg width="80" height="68" viewBox="0 0 80 68" fill="none" xmlns="http://www.w3.org/2000/svg">
<path d="M42.2216 37.7745C42.2215 37.76 42.2215 37.7452 42.2215 37.7301L42.2216 37.7745ZM42.2497 48.7048C42.2707 58.4539 49.7194 66.4904 59.2256 67.4442C59.8501 67.5068 60.4834 67.5389 61.1242 67.5389C71.5324 67.5389 80 59.0714 80 48.6638C80 48.4212 79.9954 48.1796 79.9863 47.9391L79.5864 37.3981C79.2583 28.7505 73.026 21.5889 64.814 19.8381C65.8675 18.7475 66.5579 18.1682 66.5785 18.1507C66.8722 17.9082 67.0567 17.5579 67.0916 17.179C67.0969 17.1219 67.0987 17.0649 67.0971 17.0083L66.8263 6.77657C66.8178 6.45989 66.7041 6.15322 66.4994 5.9074L62.0021 0.511003C61.7639 0.224878 61.422 0.0449082 61.0532 0.00793623L61.0222 0.00510572C60.9861 0.00240492 60.9487 0.00100112 60.9128 0.00100112C60.5696 0.00100115 60.2359 0.125643 59.9771 0.354654C42.9922 15.3018 42.2215 34.353 42.2215 37.6849L42.2215 37.7301L42.2216 37.7745L42.244 48.2286C42.244 48.2443 42.2441 48.2593 42.2441 48.2742C42.2445 48.4761 42.2477 48.6153 42.2499 48.6869C42.2498 48.6928 42.2497 48.6986 42.2497 48.7048ZM0.0057738 48.687C0.017585 58.4442 7.47092 66.4899 16.9829 67.4443C17.6075 67.507 18.2409 67.5391 18.8815 67.5391C29.2763 67.5391 37.7352 59.0936 37.7573 48.7048L37.7574 48.6639L37.7796 38.1964L37.7798 38.1555L37.7799 38.1157C37.7799 29.0244 31.2543 21.4288 22.6411 19.7666C23.6552 18.7222 24.3159 18.1679 24.3361 18.151C24.6297 17.9085 24.8143 17.5582 24.8492 17.1793C24.8525 17.1422 24.8546 17.1051 24.8551 17.068L25.0065 6.83561C25.0115 6.49827 24.8968 6.16862 24.6795 5.90765L20.1821 0.511259C19.9438 0.225133 19.6019 0.045156 19.2333 0.00819165L19.2022 0.00536878C19.1661 0.00267561 19.1288 0.00126417 19.0928 0.00126417C18.7496 0.0012642 18.416 0.125906 18.157 0.35491C2.50006 14.1322 0.620007 31.3967 0.421552 36.6236L0.0218259 47.1568C0.00475137 47.6049 5.91823e-06 47.9656 5.94126e-06 48.229C-0.000123739 48.456 0.00346972 48.6107 0.0057738 48.687Z" fill="#1B69FF"/>
<path d="M43.6791 48.6616C43.6791 58.2955 51.4889 66.1055 61.1227 66.1055C70.7566 66.1055 78.5664 58.2955 78.5664 48.6616C78.5664 39.028 70.7566 31.218 61.1227 31.218C58.9371 31.218 56.854 31.6378 54.9262 32.3718C58.9271 22.5995 65.6655 17.0451 65.6655 17.0451L61.1228 11.594C42.9522 27.5839 43.6791 48.6616 43.6791 48.6616Z" fill="white"/>
<path d="M61.1427 11.3393L65.9189 17.0699L65.7792 17.1845C65.7134 17.239 59.2035 22.6795 55.2493 32.0642C57.1606 31.3839 59.1348 31.04 61.1232 31.04C70.8406 31.04 78.7461 38.9454 78.7461 48.6629C78.7461 58.3797 70.8406 66.2852 61.1232 66.2852C51.407 66.2852 43.503 58.3818 43.5016 48.6657C43.4904 48.2847 43.0542 27.2584 61.0043 11.4609L61.1427 11.3393ZM65.4155 17.0251L61.1035 11.851C43.3449 27.5891 43.8525 48.4476 43.8594 48.6566L43.8594 48.6629C43.8594 58.1825 51.604 65.9271 61.1231 65.9271C70.6434 65.9271 78.3881 58.1825 78.3881 48.6629C78.3881 39.1432 70.6435 31.3979 61.1231 31.3979C59.0453 31.3979 56.9816 31.7825 54.9905 32.5402L54.6046 32.687L54.7612 32.3053C58.419 23.3702 64.434 17.8809 65.4155 17.0251Z" fill="#1B69FF"/>
<path d="M1.43691 48.6616C1.43692 58.2955 9.24673 66.1055 18.8804 66.1055C28.5144 66.1055 36.3242 58.2955 36.3242 48.6616C36.3242 39.028 28.5144 31.218 18.8804 31.218C16.6948 31.218 14.6118 31.6378 12.6839 32.3718C16.6849 22.5995 23.4231 17.0451 23.4231 17.0451L18.8804 11.594C0.709977 27.5839 1.43691 48.6616 1.43691 48.6616Z" fill="white"/>
<path d="M18.9004 11.3393L23.6768 17.0699L23.537 17.1845C23.4712 17.239 16.9613 22.6795 13.0071 32.0642C14.9185 31.3839 16.8926 31.04 18.8809 31.04C28.5985 31.04 36.5039 38.9454 36.5039 48.6629C36.5039 58.3797 28.5985 66.2852 18.8809 66.2852C9.16481 66.2852 1.25937 58.3818 1.25796 48.6657C1.24679 48.2847 0.810593 27.2584 18.762 11.4609L18.9004 11.3393ZM23.1733 17.0251L18.8612 11.851C1.10135 27.5891 1.60878 48.4476 1.61584 48.6566L1.61584 48.6629C1.61584 58.1825 9.36044 65.9271 18.8809 65.9271C28.4013 65.9271 36.1459 58.1825 36.1459 48.6629C36.1459 39.1432 28.4013 31.3979 18.8809 31.3979C16.8033 31.3979 14.7394 31.7825 12.7484 32.5402L12.3624 32.687L12.5192 32.3053C16.1768 23.3702 22.1918 17.8809 23.1733 17.0251Z" fill="#1B69FF"/>
</svg>
