<svg width="30" height="30" viewBox="0 0 30 30" fill="none" xmlns="http://www.w3.org/2000/svg">
<g clip-path="url(#clip0_1855_199511)">
<path d="M25.5 0H4.5C2.01472 0 0 2.01472 0 4.5V25.5C0 27.9853 2.01472 30 4.5 30H25.5C27.9853 30 30 27.9853 30 25.5V4.5C30 2.01472 27.9853 0 25.5 0Z" fill="#3396CD"/>
<path d="M22.3477 6.16992C22.9922 7.23047 23.2793 8.32031 23.2793 9.70313C23.2793 14.1035 19.5234 19.8223 16.4707 23.8359H9.50977L6.7207 7.13672L12.8203 6.55664L14.3027 18.4395C15.6797 16.1895 17.3848 12.6562 17.3848 10.2539C17.3848 8.93555 17.1562 8.03906 16.8047 7.30078L22.3477 6.16992Z" fill="white"/>
</g>
<defs>
<clipPath id="clip0_1855_199511">
<rect width="30" height="30" fill="white"/>
</clipPath>
</defs>
</svg>
