<svg width="1372" height="668" viewBox="0 0 1372 668" fill="none" xmlns="http://www.w3.org/2000/svg">
<rect x="3.81387" y="46.707" width="55.8675" height="55.8675" transform="rotate(-50.1545 3.81387 46.707)" stroke="#00E0FF" stroke-width="5.22693"/>
<path d="M1379 431C1284.56 431 1208 354.441 1208 260C1208 165.559 1284.56 89 1379 89" stroke="#B2FFC8" stroke-width="21"/>
<path d="M1262.03 291.263L1265.06 282.299C1265.62 280.64 1267.18 279.522 1268.93 279.521L1273.92 279.519C1275.78 279.518 1277.41 278.255 1277.87 276.45L1279.05 271.903C1279.53 270.037 1281.24 268.76 1283.17 268.838L1287.15 268.999C1289.05 269.076 1290.76 267.832 1291.26 265.998L1292.59 261.153C1293.08 259.371 1294.71 258.139 1296.55 258.149L1301.21 258.172C1303.1 258.182 1304.75 256.895 1305.2 255.059L1306.32 250.509C1306.75 248.729 1308.32 247.458 1310.15 247.398L1315.56 247.222C1317.37 247.163 1318.93 245.92 1319.39 244.168L1320.73 239.032C1321.16 237.375 1322.58 236.163 1324.28 235.995L1334.12 235.026" stroke="#FF6E75" stroke-width="3.54298"/>
<path d="M55.1152 553.142L47.942 565.663C47.942 565.663 47.3636 563.62 46.3381 561.292C44.6622 557.48 41.7933 552.911 38.3457 555.327C38.1953 555.435 38.0487 555.566 37.9109 555.73C32.976 561.463 36.1622 600.613 36.1622 600.613L32.9282 601.689C32.9282 601.689 25.7952 552.986 36.8383 545.885C48.9306 538.107 55.1152 553.142 55.1152 553.142Z" fill="#0086C1"/>
<path opacity="0.2" d="M49.1501 557.706L46.3026 561.338C44.6203 557.517 41.7407 552.935 38.2801 555.358C38.1291 555.465 37.982 555.597 37.8436 555.762C38.6047 552.577 39.8353 550.27 41.7946 550.313C47.9899 550.461 49.1501 557.706 49.1501 557.706Z" fill="#2C1C3D"/>
<path d="M85.1714 558.027L88.2367 572.153C88.2367 572.153 89.4042 570.383 91.0836 568.476C93.8305 565.355 97.9434 561.876 100.502 565.232C100.614 565.381 100.714 565.551 100.795 565.749C103.772 572.721 88.9326 609.064 88.9326 609.064L91.6916 611.077C91.6916 611.077 113.175 566.835 104.785 556.693C95.6001 545.586 85.1714 558.027 85.1714 558.027Z" fill="#0086C1"/>
<path opacity="0.2" d="M89.4084 564.181L91.0254 568.509C93.7794 565.383 97.9029 561.897 100.468 565.26C100.58 565.409 100.68 565.579 100.762 565.777C100.997 562.513 100.521 559.94 98.6421 559.384C92.6982 557.635 89.4084 564.181 89.4084 564.181Z" fill="#2C1C3D"/>
<path d="M77.8505 558.266L74.3878 557.726C74.3878 557.726 75.0659 556.286 75.7455 554.251C77.3208 549.513 78.9175 541.548 72.1431 540.891C66.6128 540.352 65.17 545.436 64.9427 549.906C64.78 553.281 65.3128 556.308 65.3128 556.308L62.3754 555.849C62.3754 555.849 58.0247 532.561 72.3964 533.654C87.9427 534.836 77.8505 558.266 77.8505 558.266Z" fill="#00A6DD"/>
<path opacity="0.2" d="M77.8099 555.104L75.734 554.269C77.3108 549.526 78.909 541.553 72.128 540.896C66.5921 540.356 65.1479 545.445 64.9204 549.919L63.2886 549.262C63.418 548.957 64.2046 537.33 72.9029 538.689C81.5929 540.046 77.8099 555.104 77.8099 555.104Z" fill="#2C1C3D"/>
<path d="M98.0168 636.822C97.2333 640.973 96.3775 643.953 95.5937 645.26C88.3859 657.371 32.0147 647.297 22.6551 637.334C20.9053 635.469 20.1483 630.945 20.3206 624.852C20.5246 617.875 21.9574 608.841 24.5289 599.39C31.7511 572.877 47.9972 543.091 71.4738 546.279C95.3806 549.535 100.907 583.642 100.411 611.068C100.229 621.194 99.2249 630.404 98.0168 636.822Z" fill="#FF882F"/>
<path opacity="0.14" d="M98.2579 636.728C97.4724 640.894 96.6143 643.886 95.8284 645.197C88.6013 657.353 32.0772 647.243 22.6921 637.243C20.9375 635.371 20.1783 630.831 20.3509 624.715L20.6573 624.523C20.6573 624.523 29.0282 640.273 57.4295 644.714C84.6912 648.978 97.2926 637.648 98.2579 636.728Z" fill="#2C1C3D"/>
<path d="M100.366 611.145C97.3831 611.344 94.8894 608.876 94.9653 605.787C95.3167 591.542 93.8976 555.43 70.8242 551.621C47.9996 547.853 35.9029 581.305 31.8564 595.395C30.9133 598.678 27.5383 600.526 24.4083 599.456C31.6378 572.918 47.9 543.104 71.4 546.296C95.3303 549.555 100.862 583.694 100.366 611.145Z" fill="#FFB032"/>
<path d="M24.4404 599.164C24.4404 599.164 17.4578 595.937 13.544 601.83C9.63045 607.722 5.83125 632.757 20.6375 632.155C30.0771 618.553 24.4404 599.164 24.4404 599.164Z" fill="#FFB032"/>
<path d="M12.2499 611.631C11.9817 614.297 12.0591 616.416 10.5277 616.264C8.99627 616.113 7.97197 613.83 8.24115 611.164C8.50933 608.499 9.96872 606.46 11.5001 606.612C13.0315 606.763 12.519 608.965 12.2499 611.631Z" fill="#2C1C3D"/>
<path d="M11.5043 610.882L18.9097 612.04C19.3418 612.108 19.6365 612.526 19.568 612.974C19.4987 613.422 19.0919 613.731 18.6595 613.664L10.8982 612.45L11.5043 610.882Z" fill="#2C1C3D"/>
<path d="M100.6 611.211C100.6 611.211 108.223 610.268 110.175 617.075C112.127 623.882 108.599 647.936 96.2841 644.369C90.7766 627.856 100.6 611.211 100.6 611.211Z" fill="#FFB032"/>
<path d="M108.438 626.863C107.891 629.484 107.177 631.479 108.682 631.802C110.187 632.125 111.85 630.262 112.397 627.641C112.945 625.019 112.169 622.633 110.664 622.309C109.159 621.986 108.985 624.241 108.438 626.863Z" fill="#2C1C3D"/>
<path d="M109.38 626.352L101.974 625.194C101.542 625.126 101.135 625.434 101.066 625.883C100.997 626.331 101.291 626.749 101.724 626.817L109.486 628.031L109.38 626.352Z" fill="#2C1C3D"/>
<path d="M88.4388 635.143C88.2583 636.215 87.9419 637.248 87.4951 638.201C82.79 648.282 36.8936 639.872 31.5308 633.002C30.4941 631.679 30.1547 629.852 30.4375 627.783C31.5853 619.19 43.3942 606.448 59.553 608.151C80.2102 610.319 90.2116 624.921 88.4388 635.143Z" fill="#0086C1"/>
<path d="M61.5662 615.942L59.6817 615.67L55.2964 620.992L57.3948 623.704L60.6771 623.1L61.5662 615.942ZM57.8231 622.507L56.9129 621.037L57.4833 620.437L59.6828 621.26L59.5969 621.966L57.8231 622.507Z" fill="#FFB032"/>
<path d="M88.4367 635.162C85.3803 629.037 77.4911 617.191 61.4473 614.753C44.7681 612.216 34.3911 622.687 30.4158 627.799C31.5639 619.2 43.3767 606.451 59.541 608.156C80.2052 610.325 90.21 624.935 88.4367 635.162Z" fill="#00A6DD"/>
<path d="M63.4687 615.12C63.6834 613.728 62.7681 612.429 61.4229 612.219C60.0785 612.009 58.8136 612.967 58.5987 614.359C58.384 615.751 59.2993 617.05 60.6445 617.26C61.9896 617.47 63.2538 616.512 63.4687 615.12Z" fill="#2C1C3D"/>
<path opacity="0.64" d="M75.657 588.625C82.3785 583.56 83.8815 573.888 79.0141 567.022C74.1467 560.156 64.7521 558.695 58.0306 563.759C51.3092 568.824 49.8062 578.496 54.6735 585.362C59.5409 592.229 68.9355 593.69 75.657 588.625Z" fill="white"/>
<path opacity="0.64" d="M77.7538 577.893C78.717 571.656 74.6136 565.837 68.5889 564.896C62.5641 563.955 56.8989 568.248 55.9357 574.484C54.9724 580.721 59.0759 586.54 65.1006 587.481C71.1253 588.422 76.7906 584.129 77.7538 577.893Z" fill="white"/>
<path d="M68.3464 570.836L68.7648 573.587C68.8123 573.897 69.0475 574.139 69.3483 574.186L72.0121 574.602C72.6843 574.707 72.8264 575.641 72.2195 575.965L69.8144 577.248C69.5427 577.394 69.3908 577.702 69.4383 578.012L69.8567 580.763C69.9623 581.457 69.1455 581.893 68.6649 581.399L66.7605 579.441C66.5456 579.221 66.2162 579.169 65.9445 579.314L63.5394 580.598C62.9324 580.921 62.2861 580.257 62.5959 579.628L63.8241 577.135C63.9631 576.854 63.9107 576.513 63.6958 576.293L61.7915 574.335C61.3106 573.842 61.7279 572.995 62.4001 573.099L65.0639 573.516C65.3647 573.562 65.6617 573.404 65.8008 573.122L67.029 570.629C67.3361 570.001 68.2405 570.142 68.3464 570.836Z" fill="#EF466B"/>
<path d="M39.6588 619.895C39.5006 619.835 39.3601 619.722 39.2665 619.563C39.0452 619.187 39.161 618.694 39.5262 618.461C39.7445 618.321 61.6433 604.757 83.1671 625.91C83.4758 626.213 83.4859 626.72 83.1911 627.042C82.8963 627.364 82.4049 627.379 82.0973 627.077C61.4513 606.784 41.1819 619.281 40.3292 619.823C40.1187 619.957 39.8729 619.975 39.6588 619.895Z" fill="#2C1C3D"/>
</svg>
