<svg width="80" height="80" viewBox="0 0 80 80" fill="none" xmlns="http://www.w3.org/2000/svg">
<path d="M75.6841 44.7459C75.6841 65.7814 58.6314 76.3047 37.5958 76.3047C16.5603 76.3047 3.31641 60.3402 3.31641 39.3047C3.31641 18.2691 24.722 2.30469 45.7576 2.30469C66.7931 2.30469 75.6841 23.7103 75.6841 44.7459Z" fill="#FF15AF"/>
<path d="M50.7504 30.7297C50.6379 30.7109 50.5066 30.7109 50.3941 30.7297C47.8066 30.6359 45.7441 28.5172 45.7441 25.8922C45.7441 23.2109 47.9004 21.0547 50.5816 21.0547C53.2629 21.0547 55.4191 23.2297 55.4191 25.8922C55.4004 28.5172 53.3379 30.6359 50.7504 30.7297Z" stroke="white" stroke-width="3" stroke-linecap="round" stroke-linejoin="round"/>
<path d="M48.818 44.38C51.3867 44.8112 54.218 44.3612 56.2055 43.03C58.8492 41.2675 58.8492 38.38 56.2055 36.6175C54.1992 35.2862 51.3305 34.8362 48.7617 35.2862" stroke="white" stroke-width="3" stroke-linecap="round" stroke-linejoin="round"/>
<path d="M28.1922 30.7297C28.3047 30.7109 28.4359 30.7109 28.5484 30.7297C31.1359 30.6359 33.1984 28.5172 33.1984 25.8922C33.1984 23.2109 31.0422 21.0547 28.3609 21.0547C25.6797 21.0547 23.5234 23.2297 23.5234 25.8922C23.5422 28.5172 25.6047 30.6359 28.1922 30.7297Z" stroke="white" stroke-width="3" stroke-linecap="round" stroke-linejoin="round"/>
<path d="M30.1242 44.38C27.5555 44.8112 24.7242 44.3612 22.7367 43.03C20.093 41.2675 20.093 38.38 22.7367 36.6175C24.743 35.2862 27.6117 34.8362 30.1805 35.2862" stroke="white" stroke-width="3" stroke-linecap="round" stroke-linejoin="round"/>
<path d="M39.5004 44.7375C39.3879 44.7188 39.2566 44.7188 39.1441 44.7375C36.5566 44.6438 34.4941 42.525 34.4941 39.9C34.4941 37.2188 36.6504 35.0625 39.3316 35.0625C42.0129 35.0625 44.1691 37.2375 44.1691 39.9C44.1504 42.525 42.0879 44.6625 39.5004 44.7375Z" stroke="white" stroke-width="3" stroke-linecap="round" stroke-linejoin="round"/>
<path d="M34.0453 50.643C31.4016 52.4055 31.4016 55.293 34.0453 57.0555C37.0453 59.0617 41.9578 59.0617 44.9578 57.0555C47.6016 55.293 47.6016 52.4055 44.9578 50.643C41.9766 48.6555 37.0453 48.6555 34.0453 50.643Z" stroke="white" stroke-width="3" stroke-linecap="round" stroke-linejoin="round"/>
</svg>
