<svg width="80" height="80" viewBox="0 0 80 80" fill="none" xmlns="http://www.w3.org/2000/svg">
<path d="M76 44.7459C76 65.7814 58.7983 76.3047 37.5789 76.3047C16.3596 76.3047 3 60.3402 3 39.3047C3 18.2691 24.5927 2.30469 45.812 2.30469C67.0314 2.30469 76 23.7103 76 44.7459Z" fill="#33FF2F"/>
<path d="M47.9375 34.8164L40.0625 42.6914L37.0625 38.1914L31.0625 44.1914" stroke="white" stroke-width="2.5" stroke-linecap="round" stroke-linejoin="round"/>
<path d="M44.1875 34.8164H47.9375V38.5664" stroke="white" stroke-width="2.5" stroke-linecap="round" stroke-linejoin="round"/>
<path d="M33.875 58.2539H45.125C54.5 58.2539 58.25 54.5039 58.25 45.1289V33.8789C58.25 24.5039 54.5 20.7539 45.125 20.7539H33.875C24.5 20.7539 20.75 24.5039 20.75 33.8789V45.1289C20.75 54.5039 24.5 58.2539 33.875 58.2539Z" stroke="white" stroke-width="2.5" stroke-linecap="round" stroke-linejoin="round"/>
</svg>
