<svg width="80" height="80" viewBox="0 0 80 80" fill="none" xmlns="http://www.w3.org/2000/svg">
<path d="M76 44.7459C76 65.7814 58.7983 76.3047 37.5789 76.3047C16.3596 76.3047 3 60.3402 3 39.3047C3 18.2691 24.5927 2.30469 45.812 2.30469C67.0314 2.30469 76 23.7103 76 44.7459Z" fill="#FF932F"/>
<path d="M39.5 53.3164C47.1284 53.3164 53.3125 47.1323 53.3125 39.5039C53.3125 31.8755 47.1284 25.6914 39.5 25.6914C31.8716 25.6914 25.6875 31.8755 25.6875 39.5039C25.6875 47.1323 31.8716 53.3164 39.5 53.3164Z" stroke="white" stroke-width="3" stroke-linecap="round" stroke-linejoin="round"/>
<path d="M54.3963 24.6077L54.6725 24.3314M24.3275 54.6764L24.6037 54.4002M39.5 18.4239V18.2539M39.5 60.7539V60.5839M18.42 39.5039H18.25M60.75 39.5039H60.58M24.6037 24.6077L24.3275 24.3314M54.6725 54.6764L54.3963 54.4002" stroke="white" stroke-width="3" stroke-linecap="round" stroke-linejoin="round"/>
</svg>
