<svg width="80" height="80" viewBox="0 0 80 80" fill="none" xmlns="http://www.w3.org/2000/svg">
<path d="M75.6841 44.7459C75.6841 65.7814 58.6314 76.3047 37.5958 76.3047C16.5603 76.3047 3.31641 60.3402 3.31641 39.3047C3.31641 18.2691 24.722 2.30469 45.7576 2.30469C66.7931 2.30469 75.6841 23.7103 75.6841 44.7459Z" fill="#38DBFF"/>
<path d="M50.75 52.3671H49.325C47.825 52.3671 46.4 52.9484 45.35 53.9984L42.1438 57.1671C40.6813 58.6109 38.3 58.6109 36.8375 57.1671L33.6312 53.9984C32.5812 52.9484 31.1375 52.3671 29.6562 52.3671H28.25C25.1375 52.3671 22.625 49.8734 22.625 46.7984V26.3421C22.625 23.2671 25.1375 20.7734 28.25 20.7734H50.75C53.8625 20.7734 56.375 23.2671 56.375 26.3421V46.7984C56.375 49.8547 53.8625 52.3671 50.75 52.3671Z" stroke="white" stroke-width="3" stroke-miterlimit="10" stroke-linecap="round" stroke-linejoin="round"/>
<path d="M40.025 45.0539C39.7437 45.1477 39.275 45.1477 38.975 45.0539C36.5375 44.2102 31.0625 40.7414 31.0625 34.8352C31.0625 32.2289 33.1625 30.1289 35.75 30.1289C37.2875 30.1289 38.6375 30.8602 39.5 32.0039C40.3625 30.8602 41.7125 30.1289 43.25 30.1289C45.8375 30.1289 47.9375 32.2289 47.9375 34.8352C47.9188 40.7414 42.4625 44.2102 40.025 45.0539Z" stroke="white" stroke-width="3" stroke-linecap="round" stroke-linejoin="round"/>
</svg>
